# xmcd
# 
# Track frame offsets:
#     150
#     15856
#     33404
#     51262
#     67433
#     89532
#     107779
#     124980
#     152602
#     169982
#     189310
#     209237
#     230310
#     251013
#     272297
#     289817
#     306926
#     324797
# 
# Disc length: 4648
# 
# Revision: 3
# Processed by: cddbd v1.5.2PL0 Copyright (c) Steve Scherf et al.
# Submitted via: fre:ac v1.0.31
# 
DISCID=03122612
DTITLE=The Nitty Gritty Dirt Band - Circlin' Back - Celebrating 50 Years
DYEAR=2016
DGENRE=Country
TTITLE0=Nitty Gritty Dirt Band - You Ain't Going Nowhere
TTITLE1=Nitty Gritty Dirt Band (feat. John Prine) - Grandpa Was A Carpenter
TTITLE2=Nitty Gritty Dirt Band (feat. John Prine) - Paradise
TTITLE3=Nitty Gritty Dirt Band - My Walkin' Shoes
TTITLE4=Nitty Gritty Dirt Band (feat. Vince Gill) - Tennessee Stud
TTITLE5=Nitty Gritty Dirt Band (feat. Sam Bush with Vince Gill) - Nine Pound Hammer
TTITLE6=Nitty Gritty Dirt Band - Buy Me For The Rain
TTITLE7=Nitty Gritty Dirt Band (feat. Jackson Browne) - These Days
TTITLE8=Nitty Gritty Dirt Band (feat. Jackson Browne with Jerry Douglas, Sam Bush and Byron House) - Truthful Parson Brown
TTITLE9=Nitty Gritty Dirt Band (feat. Alison Krauss) - Keep On The Sunny Side
TTITLE10=Nitty Gritty Dirt Band (feat. Alison Krauss) - Catfish John
TTITLE11=Nitty Gritty Dirt Band (feat. Rodney Crowell with Alison Krauss) - An American Dream
TTITLE12=Nitty Gritty Dirt Band (feat. Rodney Crowell) - Long Hard Road (The Sharecropper's Dream)
TTITLE13=Nitty Gritty Dirt Band (feat. Jerry Jeff Walker) - Mr. Bojangles
TTITLE14=Nitty Gritty Dirt Band (feat. Jimmy Ibbotson) - Fishin' In The Dark
TTITLE15=Nitty Gritty Dirt Band  - Bayou Jubilee - Sally Was A Goodun
TTITLE16=Nitty Gritty Dirt Band - Jambalaya
TTITLE17=Nitty Gritty Dirt Band - Will The Circle Be Unbroken
EXTD=
EXTT0=
EXTT1=
EXTT2=
EXTT3=
EXTT4=
EXTT5=
EXTT6=
EXTT7=
EXTT8=
EXTT9=
EXTT10=
EXTT11=
EXTT12=
EXTT13=
EXTT14=
EXTT15=
EXTT16=
EXTT17=
PLAYORDER=
